<svg xmlns="http://www.w3.org/2000/svg" viewBox="0 0 48 48" width="48" height="48">
  <!-- Digital Detective icon: keyboard_command_key in #DD1234 on transparent -->
  <g fill="none" stroke="#DD1234" stroke-width="3.2" stroke-linecap="round" stroke-linejoin="round">
    <!-- Inner square -->
    <rect x="17" y="17" width="14" height="14" rx="1"/>
    <!-- Top-left loop -->
    <path d="M17 17 L13 17 A4 4 0 0 1 13 9 A4 4 0 0 1 17 13 L17 17"/>
    <!-- Top-right loop -->
    <path d="M31 17 L35 17 A4 4 0 0 0 35 9 A4 4 0 0 0 31 13 L31 17"/>
    <!-- Bottom-left loop -->
    <path d="M17 31 L13 31 A4 4 0 0 0 13 39 A4 4 0 0 0 17 35 L17 31"/>
    <!-- Bottom-right loop -->
    <path d="M31 31 L35 31 A4 4 0 0 1 35 39 A4 4 0 0 1 31 35 L31 31"/>
  </g>
  <g>
    <circle cx="38" cy="38" r="8" fill="#DD1234"/>
    <text x="38" y="40.5" text-anchor="middle" font-size="7" font-family="Arial, sans-serif" font-weight="700" fill="#ffffff">1.2</text>
  </g>
</svg>
